<?xml version="1.0" standalone="no"?>
<!DOCTYPE svg PUBLIC "-//W3C//DTD SVG 20010904//EN"
 "http://www.w3.org/TR/2001/REC-SVG-20010904/DTD/svg10.dtd">
<svg version="1.0" xmlns="http://www.w3.org/2000/svg"
 width="400.000000pt" height="402.000000pt" viewBox="0 0 400.000000 402.000000"
 preserveAspectRatio="xMidYMid meet">

<g transform="translate(0.000000,402.000000) scale(0.100000,-0.100000)"
fill="#000000" stroke="none">
<path d="M1870 3659 c-755 -54 -1379 -623 -1511 -1378 -28 -160 -28 -402 0
-562 101 -578 494 -1061 1033 -1269 205 -79 384 -112 618 -111 567 1 1083 283
1392 761 267 414 335 954 178 1424 -245 731 -937 1191 -1710 1135z m420 -159
c307 -62 573 -204 789 -421 217 -216 355 -476 422 -789 32 -151 32 -429 0
-580 -82 -384 -284 -707 -585 -932 -675 -505 -1632 -369 -2138 306 -456 609
-396 1457 143 1995 242 242 560 398 900 441 117 14 349 5 469 -20z"/>
<path d="M1865 3454 c-386 -55 -651 -181 -894 -425 -281 -280 -426 -631 -426
-1029 0 -398 145 -749 425 -1029 207 -207 453 -339 750 -402 140 -30 398 -32
540 -5 295 57 561 197 770 407 280 280 425 631 425 1029 0 248 -50 458 -159
667 -209 399 -577 676 -1015 764 -92 19 -349 33 -416 23z m378 -69 c186 -32
395 -118 555 -227 99 -67 293 -261 360 -360 107 -156 182 -336 224 -532 30
-143 30 -389 0 -532 -60 -280 -175 -502 -366 -702 -116 -120 -232 -208 -376
-281 -213 -109 -402 -154 -640 -154 -239 0 -429 45 -641 154 -145 75 -260 162
-375 281 -195 205 -320 451 -371 731 -22 123 -22 351 0 474 36 195 119 400
229 561 67 99 261 293 360 360 196 134 431 218 683 246 69 7 267 -3 358 -19z"/>
<path d="M2009 3266 c-15 -7 -25 -22 -27 -39 -3 -22 3 -31 32 -48 35 -20 46
-42 27 -54 -5 -3 -17 2 -25 11 -9 8 -23 14 -31 12 -14 -3 -14 -6 0 -25 21 -31
80 -32 95 -3 16 30 4 56 -35 79 -19 11 -35 25 -35 30 0 19 23 24 35 8 12 -17
45 -23 45 -9 0 13 -24 39 -41 45 -9 3 -27 0 -40 -7z"/>
<path d="M1858 3259 c-11 -6 -18 -22 -18 -39 0 -24 7 -33 37 -47 20 -10 38
-24 41 -30 6 -20 -27 -28 -41 -9 -9 11 -16 13 -27 6 -13 -9 -12 -13 9 -30 43
-37 95 -16 89 35 -2 23 -12 34 -40 48 -21 10 -38 23 -38 28 0 16 31 23 40 9 4
-6 15 -10 24 -8 15 3 15 5 1 26 -17 23 -49 28 -77 11z"/>
<path d="M1742 3247 c-24 -5 -41 -15 -39 -21 2 -6 10 -44 17 -84 l13 -73 41 7
c48 7 56 11 56 26 0 7 -13 8 -34 5 -30 -5 -35 -3 -39 18 -3 20 1 25 24 30 35
8 29 31 -8 30 -40 0 -43 31 -3 38 18 4 30 13 30 22 0 17 2 17 -58 2z"/>
<path d="M2137 3242 c-9 -9 -19 -40 -22 -67 -6 -43 -4 -53 14 -69 25 -23 67
-24 88 -3 25 24 30 113 8 137 -22 25 -67 26 -88 2z m66 -61 c-1 -25 -9 -51
-18 -60 -15 -15 -17 -14 -30 2 -7 10 -11 26 -10 35 14 71 16 73 38 70 19 -3
22 -8 20 -47z"/>
<path d="M2271 3158 c-18 -66 -20 -82 -9 -89 9 -6 16 0 22 21 12 42 36 39 36
-4 0 -22 6 -36 16 -40 23 -9 23 -9 17 28 -4 26 0 42 16 62 11 15 21 35 21 45
0 20 -31 43 -71 53 -25 5 -27 3 -48 -76z m79 17 c0 -18 -5 -25 -20 -25 -20 0
-28 28 -13 43 15 16 33 6 33 -18z"/>
<path d="M1623 3217 c-17 -7 -34 -15 -38 -18 -3 -4 4 -41 17 -83 18 -59 27
-76 42 -76 12 0 16 5 12 16 -19 49 -18 62 5 66 12 2 25 9 27 17 4 11 -2 13
-26 8 -22 -4 -32 -2 -36 9 -10 26 -7 32 19 38 14 4 25 13 25 21 0 17 -4 18
-47 2z"/>
<path d="M1461 3151 c-27 -27 -26 -46 2 -101 25 -49 53 -64 87 -47 49 25 51
63 7 128 -28 42 -66 50 -96 20z m61 -28 c8 -10 20 -31 27 -47 10 -24 10 -32
-3 -44 -19 -19 -34 -8 -56 41 -14 30 -16 45 -8 54 14 17 22 16 40 -4z"/>
<path d="M2461 3099 c-35 -81 -37 -89 -17 -89 7 0 19 14 26 30 14 34 19 36 44
17 17 -13 17 -15 2 -45 -15 -29 -15 -33 -1 -38 9 -4 17 -5 19 -3 14 16 74 148
69 153 -14 14 -31 4 -43 -24 -11 -26 -15 -28 -34 -18 -11 6 -22 12 -24 13 -2
2 3 16 12 33 8 16 12 32 9 36 -17 17 -33 0 -62 -65z"/>
<path d="M1328 3082 c-16 -10 -28 -21 -28 -27 0 -5 19 -40 43 -77 32 -51 46
-65 56 -58 12 7 12 12 -2 34 -9 14 -17 28 -17 31 0 11 23 4 47 -15 20 -16 29
-18 40 -9 11 10 8 16 -17 33 -16 12 -29 28 -29 36 2 28 -1 39 -17 54 -19 20
-41 19 -76 -2z m60 -45 c-4 -29 -25 -32 -38 -6 -9 17 -9 23 1 29 19 13 40 0
37 -23z"/>
<path d="M2628 3060 c-80 -63 -60 -168 27 -146 25 6 75 79 75 108 0 19 -42 58
-62 58 -8 0 -27 -9 -40 -20z m59 -21 c21 -21 -25 -99 -58 -99 -28 0 -25 42 7
79 28 34 35 36 51 20z"/>
<path d="M1197 2987 l-27 -22 50 -65 c28 -36 55 -66 60 -68 17 -6 20 18 5 42
-15 23 -15 26 4 45 26 26 27 53 3 74 -26 23 -62 21 -95 -6z m72 -21 c9 -11 8
-18 -5 -30 -15 -16 -17 -16 -31 4 -23 33 10 58 36 26z"/>
<path d="M2727 2938 c-42 -48 -53 -66 -45 -76 9 -10 17 -7 40 14 30 30 37 19
19 -30 -7 -18 -6 -28 4 -36 12 -10 17 -7 25 15 5 14 10 30 10 33 0 4 13 13 30
19 44 17 50 56 14 94 -15 16 -31 29 -35 29 -4 0 -32 -28 -62 -62z m82 -19
c-11 -22 -20 -24 -37 -7 -17 17 15 53 34 37 10 -8 11 -16 3 -30z"/>
<path d="M1810 2945 c-381 -77 -682 -381 -756 -763 -18 -94 -18 -270 0 -364
74 -386 377 -689 764 -764 94 -18 270 -18 364 0 387 75 690 378 764 764 18 95
18 270 0 364 -75 387 -378 689 -764 764 -90 17 -284 17 -372 -1z m368 -51
c183 -38 325 -115 463 -253 181 -182 269 -390 269 -641 0 -251 -88 -459 -269
-641 -182 -181 -390 -269 -641 -269 -251 0 -459 88 -641 269 -181 182 -269
390 -269 641 0 251 88 459 269 641 136 137 277 214 461 253 89 20 264 19 358
0z"/>
<path d="M1885 2883 c-16 -2 -65 -13 -107 -25 l-78 -20 0 -394 0 -394 -180 0
-180 0 0 271 0 271 -24 -29 c-13 -15 -40 -54 -60 -85 l-36 -57 0 -418 0 -418
40 -60 c22 -33 49 -71 60 -85 l20 -25 0 258 0 257 180 0 180 0 0 -379 0 -379
47 -16 c26 -9 53 -16 60 -16 11 0 13 74 13 395 l0 395 105 0 105 0 0 -405 0
-405 38 0 c20 0 47 3 60 6 l22 6 0 399 0 399 320 0 320 0 0 -32 c-1 -150 -120
-366 -264 -479 -52 -41 -165 -114 -188 -121 -12 -4 26 -98 39 -98 17 0 155 91
210 137 169 144 286 384 300 616 l6 97 -246 0 -247 0 0 28 c0 128 114 340 243
452 20 17 37 35 37 39 0 10 -71 81 -82 81 -15 0 -107 -91 -153 -151 -89 -114
-150 -260 -164 -388 l-6 -56 -60 0 -60 0 -3 411 -2 411 -47 7 c-48 6 -167 6
-218 -1z m145 -448 l0 -385 -105 0 -105 0 0 385 0 385 105 0 105 0 0 -385z"/>
<path d="M2870 2846 c-93 -43 -124 -74 -68 -68 30 3 43 -11 43 -47 0 -13 5
-26 10 -27 12 -4 98 143 91 155 -3 4 9 5 27 3 29 -5 31 -3 18 12 -7 9 -16 16
-20 15 -3 0 -49 -20 -101 -43z m30 -23 c-1 -18 -30 -44 -41 -38 -8 6 -5 13 12
26 27 21 29 22 29 12z"/>
<path d="M1056 2854 c-27 -27 -20 -69 18 -102 43 -37 69 -46 96 -32 22 12 36
51 26 76 -9 25 -31 10 -31 -21 0 -40 -19 -41 -61 -2 -27 24 -35 39 -31 52 5
11 14 15 27 12 20 -5 45 15 33 26 -12 13 -62 7 -77 -9z"/>
<path d="M965 2740 c-15 -22 -26 -43 -23 -45 3 -3 34 -26 69 -50 l64 -45 27
33 c15 17 28 38 28 45 0 21 -25 13 -40 -12 -13 -22 -17 -23 -34 -11 -18 13
-18 16 -3 39 14 20 14 25 2 29 -7 3 -20 -4 -28 -16 -12 -19 -17 -20 -30 -8
-15 12 -15 15 0 37 10 17 13 28 6 35 -6 6 -19 -4 -38 -31z"/>
<path d="M2933 2738 c-18 -13 -37 -33 -42 -45 -21 -46 28 -97 75 -79 13 5 14
9 4 21 -7 8 -16 12 -22 9 -13 -9 -38 15 -31 32 7 18 65 54 87 54 13 0 17 -7
14 -32 -4 -42 25 -47 30 -6 8 67 -52 90 -115 46z"/>
<path d="M887 2617 c-18 -34 -24 -54 -17 -61 7 -7 14 -4 23 8 13 18 17 17 76
-14 51 -28 64 -31 71 -19 7 10 -5 22 -48 46 -31 18 -61 34 -67 37 -6 2 -5 9 3
17 15 17 15 26 -1 32 -8 3 -23 -15 -40 -46z"/>
<path d="M3007 2609 c-54 -32 -66 -43 -57 -54 9 -11 24 -6 82 28 68 40 85 59
56 64 -7 1 -44 -16 -81 -38z"/>
<path d="M3038 2549 c-45 -23 -57 -58 -34 -94 35 -53 148 -14 154 53 2 19 -2
40 -9 48 -16 20 -67 17 -111 -7z m95 -24 c12 -29 -82 -80 -105 -57 -17 17 -2
41 34 57 43 18 65 19 71 0z"/>
<path d="M826 2489 c-9 -23 -15 -43 -14 -45 14 -13 152 -64 158 -57 19 22 33
74 22 85 -9 9 -15 4 -23 -20 -12 -36 -13 -36 -40 -22 -16 9 -17 15 -9 31 11
20 6 39 -11 39 -5 0 -9 -6 -9 -12 0 -24 -16 -39 -34 -32 -16 6 -16 16 1 62 3
6 -2 12 -10 12 -8 0 -22 -19 -31 -41z"/>
<path d="M3107 1992 c-20 -22 -22 -63 -5 -80 30 -30 98 -1 98 41 0 23 -35 57
-58 57 -11 0 -26 -8 -35 -18z"/>
<path d="M790 1950 c-11 -11 -20 -28 -20 -38 0 -41 69 -69 98 -40 20 20 14 65
-10 82 -30 21 -44 20 -68 -4z"/>
<path d="M2863 1374 c-4 -11 15 -37 61 -82 54 -54 68 -64 76 -52 6 10 5 19 -5
29 -19 19 1 64 27 58 11 -3 22 2 28 13 8 16 1 19 -79 34 -108 19 -100 19 -108
0z m97 -34 c10 -6 12 -12 4 -20 -7 -7 -16 -5 -29 10 -14 15 -15 20 -4 20 8 0
21 -5 29 -10z"/>
<path d="M1043 1357 c-68 -15 -90 -23 -86 -33 3 -8 16 -14 29 -14 31 0 49 -33
32 -60 -9 -13 -9 -23 -2 -30 12 -12 134 109 134 134 0 23 -9 23 -107 3z m37
-42 c-17 -19 -26 -22 -31 -13 -10 15 -2 24 26 31 11 3 22 5 24 6 3 0 -6 -10
-19 -24z"/>
<path d="M1126 1248 c-31 -23 -59 -53 -62 -65 -9 -34 20 -73 54 -73 32 1 141
79 135 98 -7 20 -20 15 -79 -30 -49 -37 -57 -40 -70 -26 -14 13 -12 18 18 44
18 16 46 38 61 50 24 17 26 22 15 32 -12 9 -26 3 -72 -30z"/>
<path d="M2800 1268 c-46 -49 -45 -53 31 -108 56 -40 73 -49 84 -40 12 10 9
16 -13 35 -33 29 -25 40 20 27 29 -8 37 -7 46 8 9 15 6 18 -29 24 -21 3 -39
11 -39 17 0 15 -47 59 -64 59 -8 0 -25 -10 -36 -22z m59 -31 c8 -10 7 -18 -2
-31 -12 -16 -14 -16 -31 3 -19 20 -15 41 8 41 8 0 19 -6 25 -13z"/>
<path d="M2727 1183 c-13 -12 -7 -21 59 -78 51 -45 68 -55 77 -45 9 9 -2 25
-52 71 -64 60 -72 64 -84 52z"/>
<path d="M1209 1121 c-48 -48 -53 -89 -13 -120 35 -27 45 -26 77 7 l27 28 -25
24 c-25 23 -27 22 -29 -15 -1 -24 -34 -32 -42 -11 -8 20 18 60 51 82 30 19 56
5 52 -28 -3 -31 21 -33 29 -3 5 19 1 32 -17 51 -33 35 -65 31 -110 -15z"/>
<path d="M2660 1115 l-33 -34 64 -65 64 -66 38 36 c28 26 36 39 28 47 -8 8
-18 4 -36 -13 -24 -22 -27 -23 -42 -7 -16 15 -16 18 0 35 18 20 22 42 8 42 -5
0 -14 -7 -21 -15 -7 -8 -18 -15 -25 -15 -22 0 -23 24 -3 47 18 20 18 43 -1 43
-4 0 -22 -16 -41 -35z"/>
<path d="M1325 1019 c-25 -34 -45 -65 -45 -69 0 -21 15 -42 39 -55 37 -18 60
-5 111 65 35 47 38 55 24 63 -10 6 -19 6 -23 0 -42 -62 -77 -103 -88 -103 -30
0 -24 32 16 85 38 51 45 75 20 75 -5 0 -29 -27 -54 -61z"/>
<path d="M2602 1061 c-11 -6 -8 -21 12 -70 l25 -63 -53 46 c-45 38 -56 43 -66
32 -9 -12 1 -25 56 -70 104 -85 118 -76 78 49 -16 47 -31 85 -34 85 -3 0 -11
-4 -18 -9z"/>
<path d="M1476 974 c-21 -20 -20 -49 0 -84 19 -31 13 -63 -10 -54 -8 3 -16 15
-18 27 -4 26 -31 29 -36 5 -4 -22 41 -68 67 -68 21 0 51 35 51 58 0 8 -9 27
-21 43 -17 24 -18 33 -9 44 15 18 30 10 30 -15 0 -18 23 -34 34 -23 14 14 4
43 -20 62 -32 25 -47 26 -68 5z"/>
<path d="M2445 960 c-6 -10 71 -160 81 -160 11 0 84 45 84 52 0 16 -21 18 -44
3 -24 -16 -24 -15 -60 50 -36 64 -49 75 -61 55z"/>
<path d="M2391 941 c-10 -7 -6 -25 22 -87 20 -46 41 -80 51 -82 23 -5 20 10
-15 91 -37 84 -40 89 -58 78z"/>
<path d="M1590 929 c0 -7 7 -17 17 -24 15 -11 14 -17 -9 -76 -14 -35 -24 -67
-21 -71 13 -22 33 -1 56 60 16 42 30 66 39 64 28 -7 33 -7 33 7 0 7 -22 22
-50 32 -58 22 -65 23 -65 8z"/>
<path d="M2280 890 c-31 -31 -25 -57 17 -79 12 -6 31 -11 43 -11 25 0 39 -29
19 -41 -8 -5 -19 -3 -29 6 -10 9 -21 11 -30 5 -22 -14 6 -40 44 -40 39 0 56
15 56 51 0 32 -14 44 -57 54 -38 8 -50 22 -34 38 8 8 14 8 22 0 6 -6 19 -8 30
-6 19 5 19 7 3 24 -22 25 -59 24 -84 -1z"/>
<path d="M1726 867 c-29 -29 -44 -104 -27 -136 14 -26 55 -37 86 -23 24 11 45
63 45 113 0 59 -63 87 -104 46z m63 -21 c8 -10 9 -26 2 -56 -11 -50 -24 -65
-47 -56 -29 11 -6 126 26 126 4 0 13 -6 19 -14z"/>
<path d="M2111 861 c-11 -7 -54 -181 -47 -189 8 -8 35 12 39 29 6 23 45 26 62
3 6 -9 18 -15 27 -13 13 3 9 18 -21 86 -41 94 -42 95 -60 84z m28 -98 c1 -7
-6 -13 -14 -13 -17 0 -18 4 -8 39 6 23 7 23 14 5 4 -10 8 -25 8 -31z"/>
<path d="M1918 771 c-3 -88 -3 -90 21 -94 39 -8 80 12 88 41 22 86 -6 142 -72
142 l-34 0 -3 -89z m70 47 c7 -7 12 -31 12 -55 0 -32 -5 -45 -19 -53 -30 -16
-31 -14 -31 48 0 71 11 87 38 60z"/>
</g>
</svg>
